User Type,Username,Date,Text
,burnrome,2011-01-15T23:49Z,"Thanks! Here's the stats...

File size                        : 126 MiB
Duration                         : 24mn 25s
Overall bit rate                 : 719 Kbps
Writing application              : VirtualDubMod 1.5.10.2 (build 2540/release)
Writing library                  : VirtualDubMod build 2540/release

Video
ID                               : 0
Format                           : MPEG-4 Visual
Format profile                   : Advanced Simple@L5
Format settings, BVOP            : Yes
Format settings, QPel            : No
Format settings, GMC             : No warppoints
Format settings, Matrix          : Default (H.263)
Muxing mode                      : Packed bitstream
Codec ID                         : XVID
Codec ID/Hint                    : XviD
Duration                         : 24mn 25s
Bit rate                         : 452 Kbps
Width                            : 720 pixels
Height                           : 480 pixels
Display aspect ratio             : 3:2
Frame rate                       : 29.970 fps
Standard                         : NTSC
Resolution                       : 8 bits
Colorimetry                      : 4:2:0
Scan type                        : Progressive
Bits/(Pixel*Frame)               : 0.044
Stream size                      : 78.9 MiB (63%)
Writing library                  : XviD 1.2.1 (UTC 2008-12-04)

Audio
ID                               : 1
Format                           : AC-3
Format/Info                      : Audio Coding 3
Codec ID                         : 2000
Duration                         : 24mn 25s
Bit rate mode                    : Constant
Bit rate                         : 256 Kbps
Channel(s)                       : 2 channels
Channel positions                : Front: L R
Sampling rate                    : 48.0 KHz
Stream size                      : 44.7 MiB (36%)
Alignment                        : Aligned on interleaves
Interleave, duration             : 33 ms (1.00 video frame)
Interleave, preload duration     : 512 ms
"
,danshaf,2011-09-04T13:04Z,Do you have season 14?
,bitslicker,2011-11-17T09:33Z,season 14 can be seen on youtube. the quality on youtube is much better than any of the previous episodes. now to find season 15.
